<?xml version="1.0" encoding="UTF-8"?>
<svg width="564px" height="370px" viewBox="0 0 564 370" version="1.1" xmlns="http://www.w3.org/2000/svg" xmlns:xlink="http://www.w3.org/1999/xlink">
    <!-- Generator: Sketch 52.3 (67297) - http://www.bohemiancoding.com/sketch -->
    <title>插画</title>
    <desc>Created with Sketch.</desc>
    <defs>
        <linearGradient x1="0.00572912906%" y1="50.0083239%" x2="99.9475584%" y2="50.0083239%" id="linearGradient-1">
            <stop stop-color="#808080" stop-opacity="0.25" offset="0%"></stop>
            <stop stop-color="#808080" stop-opacity="0.12" offset="54%"></stop>
            <stop stop-color="#808080" stop-opacity="0.1" offset="100%"></stop>
        </linearGradient>
        <linearGradient x1="50.0009134%" y1="100.0056%" x2="50.0009134%" y2="-0.000695461321%" id="linearGradient-2">
            <stop stop-color="#808080" stop-opacity="0.25" offset="0%"></stop>
            <stop stop-color="#808080" stop-opacity="0.12" offset="54%"></stop>
            <stop stop-color="#808080" stop-opacity="0.1" offset="100%"></stop>
        </linearGradient>
    </defs>
    <g id="插画" stroke="none" stroke-width="1" fill="none" fill-rule="evenodd">
        <g id="undraw_newsletter_vovu" transform="translate(-70.000000, -78.000000)">
            <g id="椭圆形" fill="#D6EAF7" opacity="0.30250186">
                <ellipse cx="354.611188" cy="374.72708" rx="242.582173" ry="54.3465"></ellipse>
            </g>
            <path d="M547.869574,188 C547.869574,188 520.169418,216.280702 535.806603,258.245614 C551.443787,300.210526 509,370 509,370 C509,370 509.446777,369.931579 510.30012,369.781053 C567.192666,359.527018 595.460229,293.094737 563.82397,243.744912 C552.07821,225.398947 542.405494,203.873684 547.869574,188 Z" id="路径" fill="#6F9DF5"></path>
            <path d="M548.343161,188 C548.343161,188 532.113154,222.666667 548.343161,250.947368 C564.573168,279.22807 551.125448,358.596491 508,370" id="路径" stroke="#535461" stroke-width="2"></path>
            <path d="M598,301.352981 C598,301.352981 566.142589,296.220405 563.238274,325.098547 C560.333959,353.97669 502,357.975272 502,357.975272 C502,357.975272 502.378236,358.239415 503.094184,358.713051 C551.274296,390.701708 597.333583,379.088514 590.394747,336.611549 C587.796623,320.822159 588.003752,304.959903 598,301.352981 Z" id="路径" fill="#4285F4"></path>
            <path d="M598,301.352981 C598,301.352981 566.142589,296.220405 563.238274,325.098547 C560.333959,353.97669 502,357.975272 502,357.975272 C502,357.975272 502.378236,358.239415 503.094184,358.713051 C551.274296,390.701708 597.333583,379.088514 590.394747,336.611549 C587.796623,320.822159 588.003752,304.959903 598,301.352981 Z" id="路径" fill="#A6C3FA"></path>
            <path d="M598,301 C598,301 573.275183,306.534616 575.305571,329.453251 C577.335959,352.371886 538.574001,379.833862 502,358.048768" id="路径" stroke="#535461" stroke-width="2"></path>
            <g id="分组" opacity="0.5" transform="translate(210.000000, 90.000000)" fill="url(#linearGradient-1)" fill-rule="nonzero">
                <path d="M90.7288889,101.196836 C90.7278701,94.0467985 89.6346486,86.9409527 87.4888889,80.1371142 L82.1555556,63.1973765 C82.1555556,62.9151235 82.1555556,62.6374228 82.1555556,62.3597222 C82.32,51.5020833 74.0577778,46.0846451 70.8755556,46.6719136 C67.6177778,47.2728395 58.5777778,42.629321 58.5777778,42.629321 L58.5777778,42.7567901 C57.9579641,42.025937 57.3989749,41.2432136 56.9066667,40.416821 C60.0620008,38.0628818 62.1573124,34.505076 62.7186009,30.5482492 C63.2798893,26.5914224 62.2597249,22.5699321 59.8888889,19.3935185 C60.8659478,18.6415228 61.6111455,17.6174545 62.0355556,16.4435185 C62.7733333,14.3175154 62.2088889,11.8910494 61.0088889,9.99722222 C60.4986335,9.20664709 59.9022037,8.47811746 59.2311111,7.82569444 C58.2146186,6.79417464 57.1044081,5.86429684 55.9155556,5.04868827 C52.9511111,2.94544753 49.6933333,1.13811728 46.1377778,0.496219136 C45.5225333,0.347414928 44.8819111,0.347414928 44.2666667,0.496219136 C43.7326897,0.716942188 43.2243716,0.997891863 42.7511111,1.33387346 C40.3155556,2.75424383 37.2844444,2.13966049 34.4755556,1.98942901 C31.6666667,1.83919753 28.2533333,2.64498457 27.3644444,5.34459877 C27.0888889,6.17770062 27.1066667,7.07908951 26.92,7.9349537 C26.4755556,10.0290895 24.8977778,11.654321 23.68,13.3979167 C22.4622222,15.1415123 21.5511111,17.4951389 22.5644444,19.388966 C22.9111111,20.0263117 23.4533333,20.6135802 23.4533333,21.3419753 C23.4533333,21.8655093 23.1511111,22.3344136 23.0088889,22.8351852 C22.7022222,23.9733025 23.28,25.1114198 24.1688889,25.9354167 C24.5519166,26.3584028 25.0028902,26.711013 25.5022222,26.9779321 C26.9111111,27.7154321 28.5333333,27.9430556 29.9688889,28.6259259 C30.6854542,28.9706296 31.34284,29.4318378 31.9155556,29.9916667 C33.3326924,31.511218 34.0948857,33.5499438 34.0311111,35.6503858 L34.3288889,35.6822531 C34.3288889,35.7733025 34.3288889,35.8597994 34.3288889,35.9508488 C34.64,35.9872685 34.9688889,36.0191358 35.2933333,36.0327932 C35.7600402,36.8045281 36.2940768,37.5313441 36.8888889,38.204321 C36.7881481,38.5927984 36.6740741,38.9873457 36.5466667,39.387963 C35.5022222,40.1300154 26.96,45.9571759 17.2444444,44.5550154 C6.87555556,43.0572531 0.946666667,89.4924383 0.946666667,89.4924383 C0.562349332,92.1479153 0.375146119,94.8294177 0.386666667,97.5138889 C0.342222222,104.342593 1.74222222,113.27909 9.54222222,111.963426 L13.6888889,110.565818 L13.6888889,133.533025 C13.6888889,133.533025 14.28,139.824537 12.2088889,144.003704 C10.1377778,148.18287 18.7288889,146.698765 18.7288889,146.698765 C18.7288889,146.698765 19.0577778,147.049306 19.6622222,147.645679 L19.4711111,148.196528 L19.7244444,148.460571 C18.5945453,152.417316 17.0710005,156.244768 15.1777778,159.882716 L15.4222222,160.010185 C15.2666667,160.315201 15.1777778,160.465432 15.1777778,160.465432 C15.1777778,160.465432 18.3688889,162.136188 22.76,164.289506 C26.2888889,176.508333 34.0133333,204.806481 31.4711111,210.196605 L31.5422222,210.351389 C32.0177778,211.362037 34.6755556,217.321219 34.1377778,222.77963 C33.6533333,227.659877 40.2488889,249.834954 42.7111111,257.888272 L41.5466667,258.129552 L45.6933333,273.407639 L44.8044444,283.295602 C44.8044444,283.295602 39.7688889,297.075926 51.6177778,294.380864 C63.4666667,291.685802 60.2088889,280.60054 60.2088889,280.60054 L60.5066667,258.129552 C60.5066667,258.129552 59.3644444,257.478549 57.9555556,256.854861 C56.9866667,254.173457 54.8755556,247.83642 54.8755556,243.452392 C54.8755556,237.761806 51.0222222,213.19213 51.0222222,213.19213 L51.0222222,213.142052 L51.0222222,213.046451 L51.0222222,213.019136 L51,212.691358 L51,212.636728 C51,212.331713 50.9511111,211.912886 50.9155556,211.403009 L50.9155556,211.375694 C50.4711111,204.733642 49.1377778,182.167052 50.1111111,170.403472 C50.9670725,169.80558 51.8575908,169.261323 52.7777778,168.773688 C55.6622222,176.239738 63.0977778,196.411728 62.6222222,204.874769 C62.0311111,215.345448 62.4755556,207.123688 62.6222222,205.785262 C62.6666667,205.370988 62.6977778,205.871759 62.7111111,206.996219 C62.7111111,207.20108 62.7111111,207.428704 62.7111111,207.669985 C62.7111111,207.911265 62.7111111,208.179861 62.7111111,208.457562 C62.7111111,208.735262 62.7111111,209.035725 62.7111111,209.368056 C62.7111111,209.525874 62.7111111,209.686728 62.7111111,209.850617 C62.7111111,210.178395 62.7111111,210.521348 62.7111111,210.879475 C62.7111111,211.058539 62.7111111,211.240638 62.7111111,211.425772 C62.7111111,212.336265 62.7111111,213.346914 62.68,214.398534 C62.68,214.607948 62.68,214.820396 62.68,215.03588 C62.68,215.677778 62.68,216.333333 62.6488889,216.997994 C62.6488889,217.908488 62.6133333,218.791667 62.5955556,219.706713 C62.5511111,221.755324 62.4933333,223.826698 62.4222222,225.766049 C62.4222222,225.981533 62.4148148,226.195499 62.4,226.407948 C62.3851852,226.832845 62.3688889,227.248637 62.3511111,227.655324 C62.3333333,228.062011 62.3155556,228.459594 62.2977778,228.848071 C62.28,229.233513 62.2607407,229.608333 62.24,229.972531 C62.2177778,230.400463 62.1911111,230.810185 62.1688889,231.201698 L60.56,230.964969 L60.2177778,234.752623 C59.678691,240.766142 60.4373508,246.827518 62.44,252.507253 C62.9911111,254.064198 63.4177778,255.352546 63.5111111,255.812346 C63.8088889,257.310108 63.5111111,268.104012 63.5111111,268.104012 C63.5111111,268.104012 65.2888889,282.184799 73.5866667,279.485185 C77.32,278.269676 79.1333333,274.573071 80,270.867361 C80.9616181,266.571616 80.6030197,262.076389 78.9733333,257.997531 C77.7955556,254.965586 76.5911111,250.71358 77.44,247.426698 C78.92,241.736111 78.92,233.646373 78.92,233.646373 L78.0044444,233.514352 C78.2326275,233.070019 78.4388147,232.614194 78.6222222,232.148611 C78.6222222,232.148611 78.3244444,211.475849 80.9911111,208.780787 C82.4577778,207.296682 82.3244444,203.732099 81.88,200.818519 C81.2450932,196.60203 81.095923,192.323744 81.4355556,188.071605 C81.6177778,185.881867 81.88,183.974383 82.1866667,183.296065 C82.9688889,181.711806 83.7511111,165.741744 80.2888889,158.057176 L81,157.829552 L80.8888889,157.265046 L81,157.228627 C81.5222566,158.656433 82.1156278,160.055878 82.7777778,161.421451 C82.9527043,161.561921 83.1538802,161.664179 83.3688889,161.721914 C92.9644444,159.996528 93.3511111,150.823302 92.8177778,145.815586 C93.2222222,146.015895 93.4444444,146.143364 93.4444444,146.143364 L94.3333333,132.941204 C95.2444444,130.83341 95.5822222,128.142901 95.56,125.233873 C95.6,114.836034 90.7288889,101.196836 90.7288889,101.196836 Z M80.1511111,138.72284 C79.4933333,132.973071 78.5822222,127.560185 78.5822222,127.560185 L74.1377778,111.38071 L74.1377778,105.489815 L81.1866667,132.440432 L80.1511111,138.72284 Z" id="形状"></path>
            </g>
            <path d="M269.521115,319 L269.171615,322.796642 C268.62008,328.829188 269.401682,334.908175 271.46226,340.612375 C272.024294,342.176797 272.463531,343.465694 272.557991,343.928016 C272.860262,345.431729 272.557991,356.242586 272.557991,356.242586 C272.557991,356.242586 274.381061,370.359744 282.887146,367.655863 C286.712759,366.441684 288.554721,362.7291 289.461533,359.016517 C290.444641,354.710812 290.075557,350.211002 288.403586,346.118207 C287.194503,343.078091 285.957083,338.805117 286.830834,335.522165 C288.351633,329.815527 288.351633,321.708552 288.351633,321.708552 L269.521115,319 Z" id="路径" fill="#5A5773"></path>
            <path d="M261,256.256137 C261,256.256137 272.487768,284.05782 271.89689,294.295756 C271.306012,304.533692 271.750316,296.488949 271.89689,295.173943 C272.157976,292.830593 271.89689,320.655028 271.012863,323.840163 C271.012863,323.840163 283.091509,332.617487 287.804792,320.914389 C287.804792,320.914389 287.511643,300.72518 290.159143,298.090617 C291.615726,296.643656 291.473732,293.158207 291.04317,290.314336 C290.407668,286.200582 290.253962,282.027548 290.585125,277.878657 C290.763763,275.740066 291.011107,273.856286 291.331739,273.214708 C292.215765,271.458334 293.099792,251.560337 287.795631,246 L261,256.256137 Z" id="路径" fill="#605D82"></path>
            <path d="M270.833446,323.841059 C271.744437,320.623471 272.013486,292.81204 271.744437,295.169481 C271.593392,296.484733 271.135536,304.53553 271.744437,294.291129 C272.353338,284.046729 260.515172,256.2444 260.515172,256.2444 L287,246.423247 C286.877276,246.273063 286.749831,246.13198 286.622387,246 L259,256.2444 C259,256.2444 270.838166,284.05128 270.229265,294.291129 C269.620364,304.530979 270.07822,296.484733 270.229265,295.169481 C270.498314,292.825693 270.229265,320.655328 269.318274,323.841059 C269.318274,323.841059 274.288604,327.345363 279.173972,326.972177 C274.826703,326.658155 270.833446,323.841059 270.833446,323.841059 Z" id="路径" fill="#000000" opacity="0.1"></path>
            <path d="M251,346.355215 L255.347858,361.237226 L254.415484,370.865161 C254.415484,370.865161 249.135252,384.286193 261.560463,381.659156 C273.985674,379.032118 270.57019,368.238123 270.57019,368.238123 L270.879371,346.355215 C270.879371,346.355215 265.908321,343.728177 263.734392,344.023095 C261.560463,344.318013 251,346.355215 251,346.355215 Z" id="路径" fill="#5A5773"></path>
            <path d="M228,249 C228,249 241.870188,292.697556 238.555035,299.442357 C238.555035,299.442357 241.870188,305.895294 241.26999,311.755381 C240.669793,317.615469 250.920039,349 250.920039,349 L266,346.35954 C266,346.35954 262.380059,337.562568 262.380059,331.989785 C262.380059,326.417001 258.46002,302.347318 258.46002,302.347318 C258.46002,302.347318 255.144867,258.353338 259.064906,253.660708 L228,249 Z" id="路径" fill="#605D82"></path>
            <g id="分组" opacity="0.1" transform="translate(228.000000, 248.000000)" fill="#000000">
                <path d="M29.9365854,8.624 C27.4665854,18.5789767 30.1960976,55.2127442 30.1960976,55.2127442 C30.1960976,55.2127442 34.0702439,79.247814 34.0702439,84.8406512 C34.0702439,89.0933953 36.1509756,95.2195349 37.1380488,97.8814884 L37.9443902,97.740186 C37.9443902,97.740186 34.3668293,88.9475349 34.3668293,83.3774884 C34.3668293,77.8074419 30.4926829,53.7495814 30.4926829,53.7495814 C30.4926829,53.7495814 27.9995122,20.2700465 29.9365854,8.624 Z" id="路径"></path>
                <path d="M10.8253659,50.8095814 L10.8995122,50.96 C10.9226829,50.8095814 10.9458537,50.6500465 10.9597561,50.504186 C10.920306,50.608181 10.8754501,50.7101138 10.8253659,50.8095814 Z" id="路径"></path>
                <path d="M30.4185366,6.4907907 C30.5539412,5.98514633 30.7816225,5.50790757 31.0904878,5.08232558 L0.393902439,0.392 C0.393902439,0.392 0.574634146,0.961767442 0.885121951,1.97823256 L30.4185366,6.4907907 Z" id="路径"></path>
            </g>
            <path d="M301.349023,232.442333 C301.349023,232.442333 305.415941,249.548164 293.219402,252 C293.021531,251.941955 292.836438,251.838421 292.675741,251.695896 C292.675741,251.695896 285.629226,236.110583 291.048974,230 L301.349023,232.442333 Z" id="路径" fill="#A1616A"></path>
            <path d="M247.912922,125 C247.912922,125 248.809812,136.952327 238.948664,142.649603 C229.087516,148.346879 259.860618,164 259.860618,164 L276,139.515437 C276,139.515437 269.131585,140.360953 264.949194,128.984109 L247.912922,125 Z" id="路径" fill="#F2C4CA"></path>
            <path d="M241.804904,144 C241.804904,144 256.740105,174.962661 270.209107,145.753203 L291,248.565408 C291,248.565408 258.784588,258.498713 258.497723,263.172408 C258.210858,267.846103 226,251.199755 226,251.199755 C226,251.199755 233.025919,238.345959 231.272855,230.461086 C229.51979,222.576213 241.804904,144 241.804904,144 Z" id="路径" fill="#000000" opacity="0.1"></path>
            <path d="M241.804904,144 C241.804904,144 256.740105,174.961538 270.209107,145.75314 L291,248.566158 C291,248.566158 258.784588,258.499102 258.497723,263.172628 C258.210858,267.846153 226,251.195867 226,251.195867 C226,251.195867 233.025919,238.342537 231.272855,230.45795 C229.51979,222.573363 241.804904,144 241.804904,144 Z" id="路径" fill="#E1E7EF"></path>
            <path d="M255.683346,353 C255.683346,353 252.513675,345 259.827424,345 C267.141173,345 265.924111,352.172118 265.924111,352.172118 L255.683346,353 Z" id="路径" fill="#5A5773"></path>
            <path d="M276.605917,333 C276.605917,333 273.538462,325.254849 281.207101,325.006258 C288.87574,324.757667 285.04142,331.997869 285.04142,331.997869 L276.605917,333 Z" id="路径" fill="#5A5773"></path>
            <path d="M268,134.086441 C268.479244,133.212165 276.502876,139.272114 279.719631,138.666705 C282.936387,138.061296 291.405359,143.679677 290.823799,154.888921 L296.103276,171.611058 C298.215209,178.316163 299.288004,185.310453 299.283684,192.346324 C299.283684,192.346324 306.880316,213.581512 302.79122,223.020393 L301.914336,236 C301.914336,236 295.194588,232.165741 288.179517,233.344455 L289.946915,222.745207 L282.041329,192.653616 L268.892613,160.502716 L268,134.086441 Z" id="路径" fill="#000000" opacity="0.1"></path>
            <path d="M268,134.090587 C268.8257,133.189438 276.56028,139.323042 279.77032,138.717951 C282.980361,138.112861 291.431653,143.728284 290.851306,154.931626 L296.119762,171.644959 C298.227286,178.346534 299.297841,185.337141 299.29353,192.369308 C299.29353,192.369308 306.874303,213.593316 302.793744,223.027227 L301.91869,236 C301.91869,236 295.212971,232.16776 288.212545,233.345853 L289.962651,222.733849 L282.087171,192.66727 L268.979508,160.533297 L268,134.090587 Z" id="路径" fill="#67647E"></path>
            <path d="M283.206204,170.979698 L283.206204,203.990693 L287.724057,219.767105 C287.724057,219.767105 290.734399,237.001688 289.830828,242.262006 C288.927257,247.522325 274.474809,248.68977 270.560897,244.306171 C266.646985,239.922573 268.753756,202.514351 268.753756,202.514351 L268,147.753439 L268.603941,146 L283.206204,170.979698 Z" id="路径" fill="#000000" opacity="0.1"></path>
            <path d="M285.206204,169.413099 L285.206204,202.670133 L289.724057,218.564131 C289.724057,218.564131 292.734399,235.927168 291.830828,241.226693 C290.927257,246.526218 276.474809,247.702364 272.560897,243.286094 C268.646985,238.869823 270.753756,201.182788 270.753756,201.182788 L270,146 L285.206204,169.413099 Z" id="路径" fill="#67647E"></path>
            <path d="M225,197.404573 L234.296577,226.403647 L229.937395,238.787157 C229.937395,238.787157 250.563329,260.640678 263.636358,250.151169 C263.636358,250.151169 265.090925,205.565093 262.181792,195.075585 C259.272659,184.586076 245.33231,149.311421 245.33231,149.311421 L242.445764,140 L227.050848,148.740502 L225,197.404573 Z" id="路径" fill="#000000" opacity="0.1"></path>
            <path d="M222.738644,193.424852 L222.738644,221.967381 C222.738644,221.967381 223.310338,228.088168 221.311627,232.165672 C219.312916,236.243177 227.582527,234.788867 227.582527,234.788867 C227.582527,234.788867 247.817814,256.639759 260.643246,246.151512 C260.643246,246.151512 262.070263,201.570799 259.216228,191.082552 C256.362193,180.594305 242.685869,145.323893 242.685869,145.323893 L239.836265,136 L224.732923,144.739451 L222.738644,193.424852 Z" id="路径" fill="#67647E"></path>
            <path d="M246.549585,132 C246.549585,132 237.44378,138.630381 226.991375,137.154926 C216.53897,135.679472 210.567493,181.358991 210.567493,181.358991 C210.567493,181.358991 206.685569,204.934187 219.227527,202.872217 L247,193.735396 C247,193.735396 241.028524,187.544903 241.924709,179.590279 L228.481922,184.891834 L229.085571,159.552508 L246.549585,132 Z" id="路径" fill="#000000" opacity="0.1"></path>
            <path d="M210.567493,180.737756 C210.567493,180.737756 206.685569,203.900335 219.227527,201.874453 L247,192.897547 C247,192.897547 241.028524,186.819903 241.924709,179 L228.491209,184.213268 L210.567493,180.737756 Z" id="路径" fill="#000000" opacity="0.1"></path>
            <path d="M240,182.290302 C240,182.290302 250.070278,169.542043 257.486257,175.66256 C264.902236,181.783077 242.659316,193 242.659316,193 L240,182.290302 Z" id="路径" fill="#F2C4CA"></path>
            <path d="M246.607545,131.13694 C246.8292,129.785611 237.44378,138.916745 226.991375,137.424933 C216.53897,135.933121 210.567493,182.119068 210.567493,182.119068 C210.567493,182.119068 206.685569,205.955631 219.227527,203.8708 L247,194.632684 C247,194.632684 241.028524,188.37356 241.924709,180.330747 L228.481922,185.695711 L229.085571,160.070826 L244.316086,147.561843 L246.607545,131.13694 Z" id="路径" fill="#67647E"></path>
            <path d="M265.226873,129.436851 L245.17503,125 C245.17503,125 246.219738,126.064844 245,130.230554 C248.227111,133.568051 252.192628,137.999972 257.487277,137.999972 C261.27627,138.006374 264.965255,136.90442 268,134.859668 C266.296296,132.991176 265.938058,131.326976 265.226873,129.436851 Z" id="路径" fill="#000000" opacity="0.1"></path>
            <circle id="椭圆形" fill="#F2C4CA" cx="256.5" cy="122.5" r="14.5"></circle>
            <path d="M262.512091,114.395953 C265.866314,113.827401 269.553263,112.345582 270.677332,109.149152 C271.396737,107.103258 270.848191,104.775326 269.674662,102.953271 C268.501133,101.131217 266.774563,99.7299808 264.994036,98.4764788 C262.102929,96.4529686 258.915068,94.7159731 255.434949,94.1071293 C254.834908,93.9642902 254.2095,93.9642902 253.60946,94.1071293 C253.087643,94.3197901 252.591446,94.5900893 252.130184,94.912952 C249.751653,96.2783737 246.793102,95.6874371 244.036883,95.5441797 C241.280665,95.4009223 237.9759,96.1754075 237.108118,98.7674703 C236.838342,99.5688162 236.856327,100.432837 236.658491,101.256567 C236.208863,103.271124 234.684624,104.838001 233.511096,106.516798 C232.337567,108.195595 231.433815,110.465329 232.422997,112.273954 C232.760217,112.887274 233.322252,113.45135 233.322252,114.14973 C233.235483,114.646105 233.084344,115.129161 232.872624,115.58678 C232.463463,117.073075 233.654977,118.572801 235.030838,119.280134 C236.406699,119.987467 237.989389,120.20683 239.392228,120.864918 C242.073615,122.182347 243.737281,124.935528 243.650203,127.91139 C244.927146,128.059124 246.415415,128.13523 247.2787,127.18615 C247.66538,126.760854 247.854224,126.192302 248.204933,125.740146 C248.654561,125.149209 249.355981,124.800019 249.931504,124.325479 C252.957499,121.849813 250.808278,118.429543 252.52136,115.761375 C253.420616,114.387 254.850433,114.807818 256.298234,114.830202 C258.378588,114.878667 260.458934,114.733284 262.512091,114.395953 Z" id="路径" fill="#000000" opacity="0.1"></path>
            <path d="M262.512091,114.385217 C265.866314,113.816963 269.553263,112.335925 270.677332,109.141178 C271.396737,107.09636 270.848191,104.769654 269.674662,102.948558 C268.501133,101.127463 266.774563,99.7269645 264.994036,98.4741224 C262.102929,96.4516773 258.915068,94.7155962 255.434949,94.1070729 C254.834908,93.964309 254.2095,93.964309 253.60946,94.1070729 C253.087643,94.3196217 252.591446,94.5897787 252.130184,94.9124714 C249.751653,96.2771743 246.793102,95.6865488 244.036883,95.5433668 C241.280665,95.4001849 237.9759,96.1742623 237.108118,98.7649607 C236.838342,99.5658848 236.856327,100.429451 236.658491,101.252747 C236.208863,103.266243 234.684624,104.832296 233.511096,106.510209 C232.337567,108.188123 231.433815,110.456662 232.422997,112.264334 C232.760217,112.877332 233.322252,113.441111 233.322252,114.139123 C233.235483,114.635237 233.084344,115.118039 232.872624,115.575417 C232.463463,117.060929 233.654977,118.559865 235.030838,119.266826 C236.406699,119.973787 237.989389,120.193035 239.392228,120.850777 C242.084921,122.166354 243.755439,124.927693 243.663692,127.911437 C244.940635,128.059093 246.428903,128.135158 247.292189,127.186578 C247.678869,126.761507 247.867712,126.193253 248.218422,125.741335 C248.66805,125.15071 249.369469,124.801704 249.944993,124.327413 C252.970988,121.85305 250.821767,118.434581 252.534849,115.767817 C253.434105,114.394166 254.863921,114.814763 256.311723,114.837135 C258.388141,114.878824 260.463935,114.727528 262.512091,114.385217 Z" id="路径" fill="#4A4347"></path>
            <path d="M280,163 C280,163 283.008511,179.458999 281.642553,185.811832 C280.807975,189.507495 280.931442,193.37202 282,197" id="路径" fill="#000000" opacity="0.1"></path>
            <path d="M228.309044,172 C228.309044,172 227.270925,181.088573 229,183" id="路径" fill="#000000" opacity="0.1"></path>
            <path d="M309.5,308 C309.776142,308 310,307.776142 310,307.5 C310,307.223858 309.776142,307 309.5,307 C309.223858,307 309,307.223858 309,307.5 C309,307.776142 309.223858,308 309.5,308 Z" id="路径" fill="#000000"></path>
            <g id="分组" opacity="0.5" transform="translate(271.000000, 133.000000)" fill="url(#linearGradient-2)">
                <path d="M250.541971,96.9111732 L250.541971,96.5309497 L125.573285,0.421452514 C125.41137,0.301568025 125.190145,0.301568025 125.02823,0.421452514 L0.0549635036,96.5309497 L0.0549635036,245.505251 L0.293138686,245.505251 L0.293138686,245.743464 L250.784726,245.743464 L250.784726,96.769162 L250.541971,96.9111732 Z" id="路径"></path>
            </g>
            <polygon id="路径" fill="#FFFFFF" points="518 372 276 372 276 228.665377 397 136 518 228.665377"></polygon>
            <polygon id="路径" fill="#E0E0E0" points="508 364 284 364 284 231.597907 396 146 508 231.597907"></polygon>
            <polygon id="矩形" fill="#6F9DF5" transform="translate(388.661741, 247.572235) rotate(-14.690000) translate(-388.661741, -247.572235) " points="318.13991 157.946047 459.150571 157.971993 459.183571 337.198424 318.17291 337.172478"></polygon>
            <rect id="矩形" fill="#F5F5F5" x="328" y="169" width="140" height="178"></rect>
            <polygon id="路径" fill="#000000" opacity="0.05" points="276 229 396 300 276 371"></polygon>
            <polygon id="路径" fill="#FFFFFF" points="275 229 395 300 275 371"></polygon>
            <polygon id="路径" fill="#000000" opacity="0.05" points="514 229 394 300 514 371"></polygon>
            <polygon id="路径" fill="#FFFFFF" points="516 229 396 300 516 371"></polygon>
            <polygon id="路径" fill="#000000" opacity="0.05" points="276 369 397 275 518 369"></polygon>
            <polygon id="路径" fill="#FFFFFF" points="276 372 397 278 518 372"></polygon>
            <path d="M301.823711,383 C301.823711,383 294.650102,362.327626 303.170791,347.103571 C306.791203,340.739767 307.882744,333.550396 306.281519,326.614951 C305.491759,323.328179 304.34909,320.109748 302.867834,317" id="路径" stroke="#535461" stroke-width="2"></path>
            <path d="M307,309.125674 C307,311.403047 303,318 303,318 C303,318 299,311.398921 299,309.125674 C299,306.847127 300.790861,305 303,305 C305.209139,305 307,306.847127 307,309.125674 Z" id="路径" fill="#4285F4"></path>
            <path d="M311.489395,321.980687 C310.370461,323.820704 304,327 304,327 C304,327 304.115623,319.50481 305.234557,317.664793 C306.393387,315.935875 308.623485,315.483879 310.297132,316.63871 C311.970778,317.793541 312.495978,320.146718 311.489395,321.980687 Z" id="路径" fill="#4285F4"></path>
            <path d="M313.813339,343.473944 C311.980789,344.44423 305,343.775202 305,343.775202 C305,343.775202 308.63908,337.468341 310.467913,336.498055 C311.660045,335.79604 313.121952,335.838821 314.275184,336.609469 C315.428416,337.380118 316.087134,338.754448 315.990694,340.18866 C315.894254,341.622872 315.058198,342.885851 313.813339,343.477856 L313.813339,343.473944 Z" id="路径" fill="#4285F4"></path>
            <path d="M307.499723,363.096181 C305.684801,364.408056 298,365 298,365 C298,365 300.828661,357.984666 302.643582,356.672791 C304.457401,355.488742 306.90173,355.906135 308.198438,357.621337 C309.495147,359.33654 309.187688,361.74566 307.499723,363.096181 Z" id="路径" fill="#4285F4"></path>
            <path d="M296.077074,327.824477 C297.671165,329.381821 305,331 305,331 C305,331 303.202662,323.574223 301.624512,322.016879 C300.029984,320.58262 297.609457,320.676357 296.12665,322.229787 C294.643843,323.783218 294.622016,326.24816 296.077074,327.828532 L296.077074,327.824477 Z" id="路径" fill="#4285F4"></path>
            <path d="M290.953263,350.463876 C292.834343,351.452732 300,350.7709 300,350.7709 C300,350.7709 296.264548,344.343338 294.387284,343.354482 C292.524862,342.475126 290.330127,343.285398 289.409617,345.192182 C288.489107,347.098967 289.169726,349.425101 290.953263,350.467863 L290.953263,350.463876 Z" id="路径" fill="#4285F4"></path>
            <path d="M289.767879,368.937494 C291.531675,370.358717 299,371 299,371 C299,371 296.251021,363.399926 294.487225,361.978703 C293.352895,360.966993 291.800072,360.718525 290.447132,361.332246 C289.094192,361.945967 288.160844,363.322212 288.018771,364.912924 C287.876699,366.503636 288.548974,368.050492 289.767879,368.937494 Z" id="路径" fill="#4285F4"></path>
            <rect id="矩形" fill="#4285F4" opacity="0.5" x="335" y="177" width="57" height="6"></rect>
            <rect id="矩形" fill="#4285F4" opacity="0.5" x="336" y="194" width="122" height="6"></rect>
            <rect id="矩形" fill="#4285F4" opacity="0.5" x="336" y="209" width="122" height="6"></rect>
            <rect id="矩形" fill="#4285F4" opacity="0.4" x="336" y="218" width="122" height="6"></rect>
            <rect id="矩形" fill="#4285F4" opacity="0.4" x="336" y="229" width="122" height="6"></rect>
            <rect id="矩形" fill="#4285F4" opacity="0.3" x="335" y="244" width="68" height="6"></rect>
            <rect id="矩形" fill="#4285F4" opacity="0.3" x="336" y="255" width="95" height="6"></rect>
        </g>
        <g id="分组-16" transform="translate(56.000000, 195.000000)">
            <path d="M70,130 C70,130 63.8953327,95.764964 41.237079,78.7996746 C31.7298877,71.6800611 24.7734063,61.9983236 21.7352696,50.9722907 C20.3054861,45.7479072 19.3894667,40.3989173 19,35" id="路径" stroke="#535461" stroke-width="2"></path>
            <path d="M5.74871516,23.7588895 C7.52773585,27.4758614 19.4160416,35 19.4160416,35 C19.4160416,35 20.910419,20.9438647 19.1180556,17.2221457 C17.3256923,13.5004267 12.8914832,11.948128 9.1911202,13.7520225 C5.49075716,15.5559169 3.95635182,20.0371704 5.74871516,23.7588895 Z" id="路径" fill="#4285F4"></path>
            <path d="M3.72080559,49.1490894 C7.38220609,51.1756605 22,50.9959202 22,50.9959202 C22,50.9959202 15.4048444,39.052182 11.757348,37.025611 C8.10985151,34.9990399 3.34076149,36.0684943 1.12538245,39.416156 C-1.08999659,42.7638178 0.0640397706,47.1225183 3.72080559,49.1490894 Z" id="路径" fill="#4285F4"></path>
            <path d="M22.5078291,83.9996104 C26.7048431,84.0614114 39,76.7498795 39,76.7498795 C39,76.7498795 26.941551,69.0675416 22.739985,69.0009867 C18.538419,68.9344318 15.0833934,72.2431615 15.001456,76.3838275 C14.9195187,80.5244935 18.3062631,83.9235477 22.5078291,83.9996104 Z" id="路径" fill="#4285F4"></path>
            <path d="M42.2787421,106.927496 C46.4555006,107.644413 60,102.80856 60,102.80856 C60,102.80856 49.2953275,93.8226024 45.1231792,93.1190438 C40.9510308,92.4154851 36.9171856,94.9002049 36.1334671,98.7297014 C35.3497487,102.559198 38.0973735,106.215031 42.2787421,106.927496 Z" id="路径" fill="#4285F4"></path>
            <path d="M36.5469172,46.2006504 C35.1275434,50.1489243 23.9302608,59 23.9302608,59 C23.9302608,59 20.9653466,44.9616926 22.3847204,41.0134187 C23.8040943,37.0651448 28.1252991,35.0259264 32.0319566,36.457718 C35.9386141,37.8895097 37.9662911,42.2571973 36.5469172,46.2006504 Z" id="路径" fill="#4285F4"></path>
            <path d="M60.3963136,72.8549575 C57.7818672,76.0933479 44,81 44,81 C44,81 45.4005963,67.144549 47.996368,63.9108316 C50.7158658,60.6569277 55.4792622,60.0461891 58.9303562,62.508931 C60.5635169,63.6354368 61.6511438,65.3946493 61.9296517,67.3602251 C62.2081597,69.3258009 61.6521291,71.3183417 60.3963136,72.8549575 Z" id="路径" fill="#4285F4"></path>
            <path d="M78.1604449,102.571482 C76.2756308,106.105642 64.2929693,113 64.2929693,113 C64.2929693,113 63.2404679,99.4081346 65.125282,95.8739749 C67.0100961,92.3398152 71.4535013,90.9755929 75.0557862,92.8250755 C78.658071,94.674558 80.0408552,99.0373225 78.1604449,102.571482 Z" id="路径" fill="#4285F4"></path>
            <path d="M5.74871516,23.7588895 C7.52773585,27.4758614 19.4160416,35 19.4160416,35 C19.4160416,35 20.910419,20.9438647 19.1180556,17.2221457 C17.3256923,13.5004267 12.8914832,11.948128 9.1911202,13.7520225 C5.49075716,15.5559169 3.95635182,20.0371704 5.74871516,23.7588895 Z" id="路径" fill="#58A27E"></path>
            <path d="M3.72080559,49.1490894 C7.38220609,51.1756605 22,50.9959202 22,50.9959202 C22,50.9959202 15.4048444,39.052182 11.757348,37.025611 C8.10985151,34.9990399 3.34076149,36.0684943 1.12538245,39.416156 C-1.08999659,42.7638178 0.0640397706,47.1225183 3.72080559,49.1490894 Z" id="路径" fill="#58A27E"></path>
            <path d="M22.5078291,83.9996104 C26.7048431,84.0614114 39,76.7498795 39,76.7498795 C39,76.7498795 26.941551,69.0675416 22.739985,69.0009867 C18.538419,68.9344318 15.0833934,72.2431615 15.001456,76.3838275 C14.9195187,80.5244935 18.3062631,83.9235477 22.5078291,83.9996104 Z" id="路径" fill="#58A27E"></path>
            <path d="M42.2787421,106.927496 C46.4555006,107.644413 60,102.80856 60,102.80856 C60,102.80856 49.2953275,93.8226024 45.1231792,93.1190438 C40.9510308,92.4154851 36.9171856,94.9002049 36.1334671,98.7297014 C35.3497487,102.559198 38.0973735,106.215031 42.2787421,106.927496 Z" id="路径" fill="#58A27E"></path>
            <path d="M36.5469172,46.2006504 C35.1275434,50.1489243 23.9302608,59 23.9302608,59 C23.9302608,59 20.9653466,44.9616926 22.3847204,41.0134187 C23.8040943,37.0651448 28.1252991,35.0259264 32.0319566,36.457718 C35.9386141,37.8895097 37.9662911,42.2571973 36.5469172,46.2006504 Z" id="路径" fill="#58A27E"></path>
            <path d="M60.3963136,72.8549575 C57.7818672,76.0933479 44,81 44,81 C44,81 45.4005963,67.144549 47.996368,63.9108316 C50.7158658,60.6569277 55.4792622,60.0461891 58.9303562,62.508931 C60.5635169,63.6354368 61.6511438,65.3946493 61.9296517,67.3602251 C62.2081597,69.3258009 61.6521291,71.3183417 60.3963136,72.8549575 Z" id="路径" fill="#58A27E"></path>
            <path d="M78.1604449,102.571482 C76.2756308,106.105642 64.2929693,113 64.2929693,113 C64.2929693,113 63.2404679,99.4081346 65.125282,95.8739749 C67.0100961,92.3398152 71.4535013,90.9755929 75.0557862,92.8250755 C78.658071,94.674558 80.0408552,99.0373225 78.1604449,102.571482 Z" id="路径" fill="#58A27E"></path>
            <path d="M67.8080332,128 C67.8080332,128 77.2621482,94.44066 63.6292854,70.3841878 C57.9094734,60.2920674 55.7017419,48.8250243 57.7500529,37.610518 C58.7333944,32.2784547 60.2460446,27.0507129 62.2669653,22" id="路径" stroke="#535461" stroke-width="2"></path>
            <path d="M55.0048774,7.54781703 C55.1485656,11.5715821 63.0559073,23 63.0559073,23 C63.0559073,23 70.141532,11.0720803 69.9978438,7.04369014 C69.8541556,3.01530003 66.3831873,-0.134336788 62.2431709,0.00441373216 C58.1031544,0.143164253 54.8566989,3.51942692 55.0048774,7.54781703 Z" id="路径" fill="#38D39F"></path>
            <path d="M43.363814,31.3670004 C45.772188,34.6387423 59,40 59,40 C59,40 58.2701897,26.3723245 55.8618156,23.0960003 C53.335257,19.804392 48.7111956,19.0235171 45.2521982,21.3043322 C43.613791,22.3380572 42.478726,24.0113516 42.1202941,25.9213339 C41.7618623,27.8313161 42.212539,29.8049354 43.363814,31.3670004 Z" id="路径" fill="#38D39F"></path>
            <path d="M45.5192978,69.2408806 C49.4222283,70.9680115 64,69.2077576 64,69.2077576 C64,69.2077576 55.9472948,57.4159492 52.0443642,55.6888184 C48.1414337,53.9616875 43.5212581,55.594181 41.7188308,59.3370865 C39.9164034,63.079992 41.6210246,67.5137498 45.5192978,69.2408806 Z" id="路径" fill="#38D39F"></path>
            <path d="M52.4389109,97.1469554 C56.0495931,99.4020018 71,100 71,100 C71,100 65.0312244,87.5333361 61.4252868,85.2828545 C57.8205753,83.0236918 53.0151922,83.8197829 50.403454,87.1088031 C49.2074764,88.674447 48.7470511,90.6501717 49.1337477,92.5572225 C49.5204443,94.4642733 50.718974,96.1286181 52.4389109,97.1469554 Z" id="路径" fill="#38D39F"></path>
            <path d="M75.7675609,39.597985 C72.694253,42.5607451 58,46 58,46 C58,46 61.1165262,32.2476982 64.185032,29.2849381 C67.3339603,26.3200377 72.2731667,26.2296817 75.5322607,29.0773562 C77.0592801,30.3989437 77.9535355,32.2881444 77.9982405,34.2869761 C78.0429456,36.2858078 77.2340187,38.2117759 75.7675609,39.597985 Z" id="路径" fill="#38D39F"></path>
            <path d="M84.861153,73.6878102 C81.0060057,75.6258532 66,74.8441604 66,74.8441604 C66,74.8441604 73.3528952,62.8181179 77.2080424,60.8939511 C81.0631896,58.9697843 85.904759,60.2510203 88.0157976,63.7848267 C90.1268361,67.318633 88.7353615,71.7497672 84.861153,73.6878102 Z" id="路径" fill="#38D39F"></path>
            <path d="M89.0487762,107.956506 C85.6655081,110.452604 71,112 71,112 C71,112 75.9415369,99.0727929 79.324805,96.5766952 C82.7356626,94.0856671 87.5198832,94.597234 90.3075579,97.7510585 C91.5924343,99.2385715 92.1872238,101.18684 91.9481667,103.124971 C91.7091097,105.063103 90.6579591,106.814736 89.0487762,107.956506 Z" id="路径" fill="#38D39F"></path>
        </g>
    </g>
</svg>